<svg width="636" height="792" viewBox="0 0 636 792" fill="none" xmlns="http://www.w3.org/2000/svg">
<rect x="1.5" y="1.5" width="633" height="789" rx="39.5" fill="url(#paint0_linear_1_6705)" stroke="#00FFD1" stroke-width="3"/>
<path d="M163 96C163 102.861 159.266 109 154 109C159.266 109 163 115.139 163 122C163 115.139 166.734 109 172 109C166.734 109 163 102.861 163 96Z" fill="#E363E6"/>
<path opacity="0.5" d="M80 36C80 51.3062 71.7023 65 60 65C71.7023 65 80 78.6948 80 94C80 78.6948 88.2977 65 100 65C88.2977 65 80 51.3062 80 36Z" fill="#00FFD1"/>
<path opacity="0.5" d="M574 80C574 92.1394 567.362 103 558 103C567.362 103 574 113.861 574 126C574 113.861 580.638 103 590 103C580.638 103 574 92.1394 574 80Z" fill="#1E1DD2"/>
<path opacity="0.5" d="M48 122C48 134.139 41.3618 145 32 145C41.3618 145 48 155.861 48 168C48 155.861 54.6382 145 64 145C54.6382 145 48 134.139 48 122Z" fill="#1E1DD2"/>
<path opacity="0.5" d="M549 134C549 140.861 545.266 147 540 147C545.266 147 549 153.139 549 160C549 153.139 552.734 147 558 147C552.734 147 549 140.861 549 134Z" fill="#E363E6"/>
<path opacity="0.5" d="M468 68C468 74.8614 464.266 81 459 81C464.266 81 468 87.139 468 94C468 87.139 471.734 81 477 81C471.734 81 468 74.8614 468 68Z" fill="#C7F466"/>
<g filter="url(#filter0_d_1_6705)">
<path d="M249.033 116.885C247.561 114.524 248.89 111.419 251.614 110.853L293.588 102.136C294.897 101.864 296.256 102.264 297.208 103.202L330.973 136.456C332.816 138.272 332.477 141.333 330.282 142.701L286.745 169.834C284.871 171.003 282.403 170.43 281.235 168.555L249.033 116.885Z" fill="url(#paint1_linear_1_6705)"/>
</g>
<path d="M302.722 95.224C303.262 93.2191 305.246 91.9605 307.29 92.3265L344.419 98.9757C346.235 99.3009 347.593 100.826 347.706 102.668L350.092 141.551C350.223 143.689 348.647 145.551 346.516 145.774L293.24 151.357C290.448 151.65 288.231 149.05 288.96 146.339L302.722 95.224Z" fill="url(#paint2_linear_1_6705)"/>
<path d="M307 115.8H308.46C308.887 115.8 309.173 115.72 309.32 115.56C309.467 115.4 309.54 115.173 309.54 114.88V105.66H313.92V115.62C313.92 116.86 313.633 117.733 313.06 118.24C312.5 118.747 311.6 119 310.36 119H307V115.8ZM319.238 105.66H322.438L327.498 119H323.298L322.858 117.8H318.818L318.378 119H314.178L319.238 105.66ZM321.738 114.86L320.838 112.52L319.938 114.86H321.738ZM331.338 109.16H327.658L329.018 105.66H337.558L332.918 115.5H337.298L335.958 119H326.698L331.338 109.16ZM341.689 109.16H338.009L339.369 105.66H347.909L343.269 115.5H347.649L346.309 119H337.049L341.689 109.16Z" fill="black"/>
<g filter="url(#filter1_d_1_6705)">
<path d="M307 115.8V114.8H306V115.8H307ZM309.32 115.56L310.057 116.236L310.057 116.236L309.32 115.56ZM309.54 105.66V104.66H308.54V105.66H309.54ZM313.92 105.66H314.92V104.66H313.92V105.66ZM313.06 118.24L312.398 117.491L312.389 117.498L313.06 118.24ZM307 119H306V120H307V119ZM307 116.8H308.46V114.8H307V116.8ZM308.46 116.8C308.927 116.8 309.604 116.73 310.057 116.236L308.583 114.884C308.674 114.784 308.754 114.769 308.726 114.777C308.715 114.78 308.689 114.786 308.642 114.791C308.596 114.796 308.536 114.8 308.46 114.8V116.8ZM310.057 116.236C310.425 115.835 310.54 115.334 310.54 114.88H308.54C308.54 114.945 308.532 114.968 308.534 114.962C308.535 114.959 308.539 114.948 308.547 114.933C308.556 114.918 308.568 114.901 308.583 114.884L310.057 116.236ZM310.54 114.88V105.66H308.54V114.88H310.54ZM309.54 106.66H313.92V104.66H309.54V106.66ZM312.92 105.66V115.62H314.92V105.66H312.92ZM312.92 115.62C312.92 116.747 312.654 117.264 312.398 117.491L313.722 118.989C314.613 118.202 314.92 116.973 314.92 115.62H312.92ZM312.389 117.498C312.1 117.76 311.501 118 310.36 118V120C311.699 120 312.9 119.733 313.731 118.982L312.389 117.498ZM310.36 118H307V120H310.36V118ZM308 119V115.8H306V119H308ZM319.238 105.66V104.66H318.548L318.303 105.305L319.238 105.66ZM322.438 105.66L323.373 105.305L323.128 104.66H322.438V105.66ZM327.498 119V120H328.947L328.433 118.645L327.498 119ZM323.298 119L322.359 119.344L322.6 120H323.298V119ZM322.858 117.8L323.797 117.456L323.557 116.8H322.858V117.8ZM318.818 117.8V116.8H318.12L317.879 117.456L318.818 117.8ZM318.378 119V120H319.077L319.317 119.344L318.378 119ZM314.178 119L313.243 118.645L312.729 120H314.178V119ZM321.738 114.86V115.86H323.194L322.671 114.501L321.738 114.86ZM320.838 112.52L321.771 112.161L320.838 109.734L319.905 112.161L320.838 112.52ZM319.938 114.86L319.005 114.501L318.482 115.86H319.938V114.86ZM319.238 106.66H322.438V104.66H319.238V106.66ZM321.503 106.015L326.563 119.355L328.433 118.645L323.373 105.305L321.503 106.015ZM327.498 118H323.298V120H327.498V118ZM324.237 118.656L323.797 117.456L321.919 118.144L322.359 119.344L324.237 118.656ZM322.858 116.8H318.818V118.8H322.858V116.8ZM317.879 117.456L317.439 118.656L319.317 119.344L319.757 118.144L317.879 117.456ZM318.378 118H314.178V120H318.378V118ZM315.113 119.355L320.173 106.015L318.303 105.305L313.243 118.645L315.113 119.355ZM322.671 114.501L321.771 112.161L319.905 112.879L320.805 115.219L322.671 114.501ZM319.905 112.161L319.005 114.501L320.871 115.219L321.771 112.879L319.905 112.161ZM319.938 115.86H321.738V113.86H319.938V115.86ZM331.338 109.16L332.242 109.587L332.915 108.16H331.338V109.16ZM327.658 109.16L326.726 108.798L326.196 110.16H327.658V109.16ZM329.018 105.66V104.66H328.333L328.086 105.298L329.018 105.66ZM337.558 105.66L338.462 106.087L339.135 104.66H337.558V105.66ZM332.918 115.5L332.013 115.073L331.341 116.5H332.918V115.5ZM337.298 115.5L338.232 115.858L338.751 114.5H337.298V115.5ZM335.958 119V120H336.646L336.892 119.358L335.958 119ZM326.698 119L325.793 118.573L325.121 120H326.698V119ZM331.338 108.16H327.658V110.16H331.338V108.16ZM328.59 109.522L329.95 106.022L328.086 105.298L326.726 108.798L328.59 109.522ZM329.018 106.66H337.558V104.66H329.018V106.66ZM336.653 105.233L332.013 115.073L333.822 115.927L338.462 106.087L336.653 105.233ZM332.918 116.5H337.298V114.5H332.918V116.5ZM336.364 115.142L335.024 118.642L336.892 119.358L338.232 115.858L336.364 115.142ZM335.958 118H326.698V120H335.958V118ZM327.602 119.427L332.242 109.587L330.433 108.733L325.793 118.573L327.602 119.427ZM341.689 109.16L342.594 109.587L343.266 108.16H341.689V109.16ZM338.009 109.16L337.077 108.798L336.548 110.16H338.009V109.16ZM339.369 105.66V104.66H338.685L338.437 105.298L339.369 105.66ZM347.909 105.66L348.814 106.087L349.486 104.66H347.909V105.66ZM343.269 115.5L342.365 115.073L341.692 116.5H343.269V115.5ZM347.649 115.5L348.583 115.858L349.103 114.5H347.649V115.5ZM346.309 119V120H346.997L347.243 119.358L346.309 119ZM337.049 119L336.145 118.573L335.472 120H337.049V119ZM341.689 108.16H338.009V110.16H341.689V108.16ZM338.941 109.522L340.301 106.022L338.437 105.298L337.077 108.798L338.941 109.522ZM339.369 106.66H347.909V104.66H339.369V106.66ZM347.005 105.233L342.365 115.073L344.174 115.927L348.814 106.087L347.005 105.233ZM343.269 116.5H347.649V114.5H343.269V116.5ZM346.715 115.142L345.375 118.642L347.243 119.358L348.583 115.858L346.715 115.142ZM346.309 118H337.049V120H346.309V118ZM337.954 119.427L342.594 109.587L340.785 108.733L336.145 118.573L337.954 119.427Z" fill="#FF4FCE"/>
</g>
<path d="M269.697 133.04C269.697 133.667 269.816 134.262 270.054 134.825C270.292 135.366 270.616 135.842 271.028 136.253C271.439 136.665 271.915 136.989 272.456 137.227C273.019 137.465 273.614 137.584 274.241 137.584C274.869 137.584 275.453 137.465 275.994 137.227C276.557 136.989 277.044 136.665 277.455 136.253C277.866 135.842 278.191 135.366 278.429 134.825C278.667 134.262 278.786 133.667 278.786 133.04C278.786 132.412 278.667 131.828 278.429 131.287C278.191 130.724 277.866 130.237 277.455 129.826C277.044 129.415 276.557 129.09 275.994 128.852C275.453 128.614 274.869 128.495 274.241 128.495C273.614 128.495 273.019 128.614 272.456 128.852C271.915 129.09 271.439 129.415 271.028 129.826C270.616 130.237 270.292 130.724 270.054 131.287C269.816 131.828 269.697 132.412 269.697 133.04ZM274.241 140.506C273.203 140.506 272.229 140.311 271.32 139.922C270.433 139.532 269.643 139.002 268.95 138.331C268.279 137.638 267.749 136.849 267.36 135.961C266.97 135.052 266.775 134.079 266.775 133.04C266.775 132.001 266.97 131.038 267.36 130.151C267.749 129.242 268.279 128.452 268.95 127.781C269.643 127.089 270.433 126.548 271.32 126.158C272.229 125.768 273.203 125.574 274.241 125.574C275.28 125.574 276.243 125.768 277.13 126.158C278.039 126.548 278.829 127.089 279.5 127.781C280.193 128.452 280.734 129.242 281.123 130.151C281.513 131.038 281.707 132.001 281.707 133.04C281.707 134.079 281.513 135.052 281.123 135.961C280.734 136.849 280.193 137.638 279.5 138.331C278.829 139.002 278.039 139.532 277.13 139.922C276.243 140.311 275.28 140.506 274.241 140.506ZM262.88 133.04C262.88 131.482 263.172 130.01 263.756 128.625C264.362 127.24 265.174 126.039 266.191 125.022C267.23 123.983 268.442 123.172 269.827 122.587C271.212 121.981 272.683 121.678 274.241 121.678C275.799 121.678 277.271 121.981 278.656 122.587C280.041 123.172 281.242 123.983 282.259 125.022C283.298 126.039 284.109 127.24 284.694 128.625C285.3 130.01 285.603 131.482 285.603 133.04C285.603 133.97 285.495 134.868 285.278 135.734C285.062 136.6 284.759 137.411 284.369 138.169H286.382L283.46 143.849H277.715C276.568 144.217 275.41 144.401 274.241 144.401C272.683 144.401 271.212 144.109 269.827 143.525C268.442 142.919 267.23 142.107 266.191 141.09C265.174 140.051 264.362 138.839 263.756 137.454C263.172 136.069 262.88 134.598 262.88 133.04ZM277.747 140.571C278.461 140.246 279.11 139.824 279.695 139.305C280.279 138.785 280.777 138.201 281.188 137.552C281.621 136.903 281.956 136.199 282.194 135.442C282.432 134.663 282.551 133.862 282.551 133.04C282.551 131.893 282.335 130.822 281.902 129.826C281.469 128.809 280.874 127.922 280.117 127.164C279.359 126.407 278.472 125.812 277.455 125.379C276.459 124.946 275.388 124.73 274.241 124.73C273.094 124.73 272.012 124.946 270.995 125.379C270 125.812 269.123 126.407 268.366 127.164C267.608 127.922 267.013 128.809 266.58 129.826C266.148 130.822 265.931 131.893 265.931 133.04C265.931 134.187 266.148 135.269 266.58 136.286C267.013 137.281 267.608 138.158 268.366 138.915C269.123 139.673 270.011 140.268 271.028 140.701C272.066 141.133 273.181 141.35 274.371 141.35H282.649L283.038 140.571H277.747Z" fill="black"/>
<path d="M296.258 144.401C294.894 144.401 293.661 144.228 292.557 143.882C291.453 143.536 290.512 143.016 289.733 142.324C288.954 141.631 288.348 140.755 287.915 139.694C287.504 138.634 287.298 137.39 287.298 135.961V122.198H294.213V135.669C294.213 136.427 294.364 137.011 294.667 137.422C294.992 137.812 295.522 138.006 296.258 138.006C296.993 138.006 297.513 137.812 297.816 137.422C298.14 137.011 298.303 136.427 298.303 135.669V122.198H305.249V135.961C305.249 137.39 305.033 138.634 304.6 139.694C304.189 140.755 303.583 141.631 302.782 142.324C302.003 143.016 301.062 143.536 299.958 143.882C298.854 144.228 297.621 144.401 296.258 144.401ZM296.258 140.506C293.011 140.506 291.388 138.915 291.388 135.734V124.795H290.544V135.734C290.544 137.552 291.031 138.948 292.005 139.922C293.001 140.874 294.418 141.35 296.258 141.35C298.097 141.35 299.515 140.874 300.51 139.922C301.505 138.948 302.003 137.552 302.003 135.734V124.795H301.127V135.734C301.127 138.915 299.504 140.506 296.258 140.506Z" fill="black"/>
<path d="M307.43 122.198H314.767V143.849H307.43V122.198ZM311.52 141.252V124.795H310.676V141.252H311.52Z" fill="black"/>
<path d="M322.781 127.878H316.808L319.016 122.198H332.877L325.346 138.169H332.455L330.28 143.849H315.25L322.781 127.878ZM328.592 141.252L328.916 140.473H321.028L328.429 124.795H320.704L320.411 125.574H327.098L319.697 141.252H328.592Z" fill="black"/>
<path d="M338.948 127.878H332.975L335.183 122.198H349.044L341.513 138.169H348.622L346.447 143.849H331.417L338.948 127.878ZM344.759 141.252L345.084 140.473H337.195L344.597 124.795H336.871L336.579 125.574H343.266L335.865 141.252H344.759Z" fill="black"/>
<g filter="url(#filter2_d_1_6705)">
<mask id="path-13-outside-1_1_6705" maskUnits="userSpaceOnUse" x="262.39" y="121.402" width="89" height="25" fill="black">
<rect fill="white" x="262.39" y="121.402" width="89" height="25"/>
<path d="M270.177 133.705C270.177 134.33 270.296 134.922 270.533 135.481C270.77 136.02 271.093 136.493 271.502 136.902C271.912 137.312 272.386 137.634 272.924 137.871C273.485 138.108 274.077 138.227 274.702 138.227C275.327 138.227 275.909 138.108 276.447 137.871C277.008 137.634 277.492 137.312 277.902 136.902C278.311 136.493 278.634 136.02 278.871 135.481C279.108 134.922 279.227 134.33 279.227 133.705C279.227 133.081 279.108 132.499 278.871 131.961C278.634 131.401 278.311 130.917 277.902 130.508C277.492 130.099 277.008 129.776 276.447 129.539C275.909 129.302 275.327 129.184 274.702 129.184C274.077 129.184 273.485 129.302 272.924 129.539C272.386 129.776 271.912 130.099 271.502 130.508C271.093 130.917 270.77 131.401 270.533 131.961C270.296 132.499 270.177 133.081 270.177 133.705ZM274.702 141.133C273.668 141.133 272.698 140.939 271.793 140.552C270.91 140.164 270.123 139.637 269.434 138.969C268.766 138.28 268.238 137.495 267.85 136.612C267.462 135.708 267.268 134.739 267.268 133.705C267.268 132.672 267.462 131.714 267.85 130.831C268.238 129.927 268.766 129.141 269.434 128.473C270.123 127.784 270.91 127.246 271.793 126.859C272.698 126.471 273.668 126.277 274.702 126.277C275.736 126.277 276.695 126.471 277.579 126.859C278.484 127.246 279.27 127.784 279.938 128.473C280.627 129.141 281.166 129.927 281.554 130.831C281.942 131.714 282.136 132.672 282.136 133.705C282.136 134.739 281.942 135.708 281.554 136.612C281.166 137.495 280.627 138.28 279.938 138.969C279.27 139.637 278.484 140.164 277.579 140.552C276.695 140.939 275.736 141.133 274.702 141.133ZM263.39 133.705C263.39 132.155 263.681 130.691 264.263 129.313C264.866 127.935 265.674 126.74 266.687 125.728C267.721 124.695 268.927 123.887 270.306 123.306C271.685 122.703 273.151 122.402 274.702 122.402C276.253 122.402 277.719 122.703 279.098 123.306C280.477 123.887 281.672 124.695 282.685 125.728C283.719 126.74 284.527 127.935 285.109 129.313C285.713 130.691 286.014 132.155 286.014 133.705C286.014 134.631 285.906 135.524 285.691 136.386C285.476 137.247 285.174 138.054 284.786 138.808H286.79L283.881 144.46H278.16C277.018 144.826 275.866 145.009 274.702 145.009C273.151 145.009 271.685 144.718 270.306 144.137C268.927 143.534 267.721 142.726 266.687 141.714C265.674 140.681 264.866 139.475 264.263 138.097C263.681 136.719 263.39 135.255 263.39 133.705ZM278.193 141.198C278.904 140.875 279.55 140.455 280.132 139.938C280.714 139.421 281.209 138.84 281.619 138.194C282.05 137.548 282.384 136.849 282.621 136.095C282.858 135.32 282.976 134.523 282.976 133.705C282.976 132.564 282.761 131.498 282.33 130.508C281.899 129.496 281.306 128.613 280.552 127.86C279.798 127.106 278.914 126.514 277.902 126.083C276.911 125.653 275.844 125.438 274.702 125.438C273.56 125.438 272.483 125.653 271.47 126.083C270.479 126.514 269.606 127.106 268.852 127.86C268.098 128.613 267.505 129.496 267.074 130.508C266.643 131.498 266.428 132.564 266.428 133.705C266.428 134.846 266.643 135.923 267.074 136.935C267.505 137.925 268.098 138.797 268.852 139.551C269.606 140.304 270.49 140.896 271.502 141.327C272.537 141.758 273.646 141.973 274.831 141.973H283.073L283.461 141.198H278.193Z"/>
<path d="M296.623 145.009C295.265 145.009 294.037 144.836 292.938 144.492C291.839 144.147 290.902 143.631 290.126 142.942C289.351 142.253 288.747 141.381 288.317 140.326C287.907 139.271 287.702 138.033 287.702 136.612V122.918H294.587V136.321C294.587 137.075 294.738 137.656 295.039 138.065C295.362 138.453 295.89 138.646 296.623 138.646C297.355 138.646 297.873 138.453 298.174 138.065C298.497 137.656 298.659 137.075 298.659 136.321V122.918H305.576V136.612C305.576 138.033 305.36 139.271 304.929 140.326C304.52 141.381 303.917 142.253 303.119 142.942C302.344 143.631 301.406 144.147 300.307 144.492C299.208 144.836 297.98 145.009 296.623 145.009ZM296.623 141.133C293.391 141.133 291.775 139.551 291.775 136.386V125.502H290.934V136.386C290.934 138.194 291.419 139.583 292.389 140.552C293.38 141.499 294.791 141.973 296.623 141.973C298.454 141.973 299.866 141.499 300.857 140.552C301.848 139.583 302.344 138.194 302.344 136.386V125.502H301.471V136.386C301.471 139.551 299.855 141.133 296.623 141.133Z"/>
<path d="M307.747 122.918H315.052V144.46H307.747V122.918ZM311.82 141.876V125.502H310.979V141.876H311.82Z"/>
<path d="M323.031 128.57H317.084L319.282 122.918H333.083L325.585 138.808H332.663L330.497 144.46H315.533L323.031 128.57ZM328.817 141.876L329.14 141.101H321.286L328.655 125.502H320.963L320.672 126.277H327.33L319.961 141.876H328.817Z"/>
<path d="M339.129 128.57H333.182L335.379 122.918H349.18L341.682 138.808H348.76L346.595 144.46H331.63L339.129 128.57ZM344.914 141.876L345.237 141.101H337.383L344.752 125.502H337.06L336.769 126.277H343.427L336.058 141.876H344.914Z"/>
</mask>
<path d="M270.177 133.705C270.177 134.33 270.296 134.922 270.533 135.481C270.77 136.02 271.093 136.493 271.502 136.902C271.912 137.312 272.386 137.634 272.924 137.871C273.485 138.108 274.077 138.227 274.702 138.227C275.327 138.227 275.909 138.108 276.447 137.871C277.008 137.634 277.492 137.312 277.902 136.902C278.311 136.493 278.634 136.02 278.871 135.481C279.108 134.922 279.227 134.33 279.227 133.705C279.227 133.081 279.108 132.499 278.871 131.961C278.634 131.401 278.311 130.917 277.902 130.508C277.492 130.099 277.008 129.776 276.447 129.539C275.909 129.302 275.327 129.184 274.702 129.184C274.077 129.184 273.485 129.302 272.924 129.539C272.386 129.776 271.912 130.099 271.502 130.508C271.093 130.917 270.77 131.401 270.533 131.961C270.296 132.499 270.177 133.081 270.177 133.705ZM274.702 141.133C273.668 141.133 272.698 140.939 271.793 140.552C270.91 140.164 270.123 139.637 269.434 138.969C268.766 138.28 268.238 137.495 267.85 136.612C267.462 135.708 267.268 134.739 267.268 133.705C267.268 132.672 267.462 131.714 267.85 130.831C268.238 129.927 268.766 129.141 269.434 128.473C270.123 127.784 270.91 127.246 271.793 126.859C272.698 126.471 273.668 126.277 274.702 126.277C275.736 126.277 276.695 126.471 277.579 126.859C278.484 127.246 279.27 127.784 279.938 128.473C280.627 129.141 281.166 129.927 281.554 130.831C281.942 131.714 282.136 132.672 282.136 133.705C282.136 134.739 281.942 135.708 281.554 136.612C281.166 137.495 280.627 138.28 279.938 138.969C279.27 139.637 278.484 140.164 277.579 140.552C276.695 140.939 275.736 141.133 274.702 141.133ZM263.39 133.705C263.39 132.155 263.681 130.691 264.263 129.313C264.866 127.935 265.674 126.74 266.687 125.728C267.721 124.695 268.927 123.887 270.306 123.306C271.685 122.703 273.151 122.402 274.702 122.402C276.253 122.402 277.719 122.703 279.098 123.306C280.477 123.887 281.672 124.695 282.685 125.728C283.719 126.74 284.527 127.935 285.109 129.313C285.713 130.691 286.014 132.155 286.014 133.705C286.014 134.631 285.906 135.524 285.691 136.386C285.476 137.247 285.174 138.054 284.786 138.808H286.79L283.881 144.46H278.16C277.018 144.826 275.866 145.009 274.702 145.009C273.151 145.009 271.685 144.718 270.306 144.137C268.927 143.534 267.721 142.726 266.687 141.714C265.674 140.681 264.866 139.475 264.263 138.097C263.681 136.719 263.39 135.255 263.39 133.705ZM278.193 141.198C278.904 140.875 279.55 140.455 280.132 139.938C280.714 139.421 281.209 138.84 281.619 138.194C282.05 137.548 282.384 136.849 282.621 136.095C282.858 135.32 282.976 134.523 282.976 133.705C282.976 132.564 282.761 131.498 282.33 130.508C281.899 129.496 281.306 128.613 280.552 127.86C279.798 127.106 278.914 126.514 277.902 126.083C276.911 125.653 275.844 125.438 274.702 125.438C273.56 125.438 272.483 125.653 271.47 126.083C270.479 126.514 269.606 127.106 268.852 127.86C268.098 128.613 267.505 129.496 267.074 130.508C266.643 131.498 266.428 132.564 266.428 133.705C266.428 134.846 266.643 135.923 267.074 136.935C267.505 137.925 268.098 138.797 268.852 139.551C269.606 140.304 270.49 140.896 271.502 141.327C272.537 141.758 273.646 141.973 274.831 141.973H283.073L283.461 141.198H278.193Z" stroke="#FF4FCE" stroke-width="2" mask="url(#path-13-outside-1_1_6705)"/>
<path d="M296.623 145.009C295.265 145.009 294.037 144.836 292.938 144.492C291.839 144.147 290.902 143.631 290.126 142.942C289.351 142.253 288.747 141.381 288.317 140.326C287.907 139.271 287.702 138.033 287.702 136.612V122.918H294.587V136.321C294.587 137.075 294.738 137.656 295.039 138.065C295.362 138.453 295.89 138.646 296.623 138.646C297.355 138.646 297.873 138.453 298.174 138.065C298.497 137.656 298.659 137.075 298.659 136.321V122.918H305.576V136.612C305.576 138.033 305.36 139.271 304.929 140.326C304.52 141.381 303.917 142.253 303.119 142.942C302.344 143.631 301.406 144.147 300.307 144.492C299.208 144.836 297.98 145.009 296.623 145.009ZM296.623 141.133C293.391 141.133 291.775 139.551 291.775 136.386V125.502H290.934V136.386C290.934 138.194 291.419 139.583 292.389 140.552C293.38 141.499 294.791 141.973 296.623 141.973C298.454 141.973 299.866 141.499 300.857 140.552C301.848 139.583 302.344 138.194 302.344 136.386V125.502H301.471V136.386C301.471 139.551 299.855 141.133 296.623 141.133Z" stroke="#FF4FCE" stroke-width="2" mask="url(#path-13-outside-1_1_6705)"/>
<path d="M307.747 122.918H315.052V144.46H307.747V122.918ZM311.82 141.876V125.502H310.979V141.876H311.82Z" stroke="#FF4FCE" stroke-width="2" mask="url(#path-13-outside-1_1_6705)"/>
<path d="M323.031 128.57H317.084L319.282 122.918H333.083L325.585 138.808H332.663L330.497 144.46H315.533L323.031 128.57ZM328.817 141.876L329.14 141.101H321.286L328.655 125.502H320.963L320.672 126.277H327.33L319.961 141.876H328.817Z" stroke="#FF4FCE" stroke-width="2" mask="url(#path-13-outside-1_1_6705)"/>
<path d="M339.129 128.57H333.182L335.379 122.918H349.18L341.682 138.808H348.76L346.595 144.46H331.63L339.129 128.57ZM344.914 141.876L345.237 141.101H337.383L344.752 125.502H337.06L336.769 126.277H343.427L336.058 141.876H344.914Z" stroke="#FF4FCE" stroke-width="2" mask="url(#path-13-outside-1_1_6705)"/>
</g>
<path d="M339.025 72.0019C335.82 72.4409 332.443 75.1587 330.52 76.8887L333.241 80.1189C336.223 77.997 338.899 76.8311 339.687 79.0763C347.351 100.903 357.612 155.819 377.034 151.718C392.754 147.241 384.526 129.472 386.817 118.864C387.255 117.06 388.38 114.814 390.52 114.881C392.521 114.944 391.648 113.84 391.008 113.542C384.776 110.158 377.005 109.08 370.451 106.895C368.387 106.208 369.024 107.621 369.514 108.688C370.451 120.686 370.456 120.686 373.863 138.874C372.062 139.433 365.948 126.081 359.389 110.737C358.249 111.421 357.191 111.783 356.022 111.646C359 119.684 362.251 127.643 366.204 135.528L363.398 136.935C355.398 120.977 350.274 104.854 344.616 88.6053L347.58 87.5731C347.991 88.7525 348.394 89.9262 348.8 91.102C349.341 90.6162 349.986 90.2615 350.686 90.0655C348.144 83.9953 345.804 78.4482 343.961 74.3159C343.039 72.9809 340.888 71.9493 339.025 72.0019ZM328.27 79.0892C326.135 81.3237 324.201 83.7792 322.831 85.9771L324.134 87.5125C325.529 86.5704 328.092 84.1952 330.751 82.0347L328.27 79.0892ZM351.936 93.0321C351.047 93.0321 350.359 93.7194 350.359 94.6086C350.359 95.4978 351.047 96.1847 351.936 96.1847C352.825 96.1847 353.512 95.4978 353.512 94.6086C353.512 93.7194 352.825 93.0321 351.936 93.0321ZM354.151 98.9813C353.262 98.9813 352.575 99.6685 352.575 100.557C352.575 101.447 353.262 102.134 354.151 102.134C355.04 102.134 355.727 101.447 355.727 100.558C355.727 99.6685 355.04 98.9813 354.151 98.9813ZM356.575 105.389C355.686 105.389 354.999 106.076 354.999 106.965C354.999 107.854 355.686 108.541 356.575 108.541C357.464 108.541 358.152 107.854 358.152 106.965C358.152 106.076 357.464 105.389 356.575 105.389ZM375.314 128.849C373.851 128.849 372.699 130.001 372.699 131.464C372.699 132.927 373.851 134.079 375.314 134.079C376.777 134.079 377.929 132.927 377.929 131.464C377.929 130.001 376.777 128.849 375.314 128.849Z" fill="url(#paint3_linear_1_6705)"/>
<defs>
<filter id="filter0_d_1_6705" x="236.424" y="94.0522" width="107.742" height="92.3879" filterUnits="userSpaceOnUse" color-interpolation-filters="sRGB">
<feFlood flood-opacity="0" result="BackgroundImageFix"/>
<feColorMatrix in="SourceAlpha" type="matrix" values="0 0 0 0 0 0 0 0 0 0 0 0 0 0 0 0 0 0 127 0" result="hardAlpha"/>
<feOffset dy="4"/>
<feGaussianBlur stdDeviation="6"/>
<feComposite in2="hardAlpha" operator="out"/>
<feColorMatrix type="matrix" values="0 0 0 0 0 0 0 0 0 0 0 0 0 0 0 0 0 0 0.25 0"/>
<feBlend mode="normal" in2="BackgroundImageFix" result="effect1_dropShadow_1_6705"/>
<feBlend mode="normal" in="SourceGraphic" in2="effect1_dropShadow_1_6705" result="shape"/>
</filter>
<filter id="filter1_d_1_6705" x="304" y="102.66" width="46.9092" height="19.34" filterUnits="userSpaceOnUse" color-interpolation-filters="sRGB">
<feFlood flood-opacity="0" result="BackgroundImageFix"/>
<feColorMatrix in="SourceAlpha" type="matrix" values="0 0 0 0 0 0 0 0 0 0 0 0 0 0 0 0 0 0 127 0" result="hardAlpha"/>
<feOffset/>
<feGaussianBlur stdDeviation="1.5"/>
<feColorMatrix type="matrix" values="0 0 0 0 0.8898 0 0 0 0 0.39 0 0 0 0 0.9 0 0 0 1 0"/>
<feBlend mode="normal" in2="BackgroundImageFix" result="effect1_dropShadow_1_6705"/>
<feBlend mode="normal" in="SourceGraphic" in2="effect1_dropShadow_1_6705" result="shape"/>
</filter>
<filter id="filter2_d_1_6705" x="260.39" y="119.402" width="92.3679" height="28.6069" filterUnits="userSpaceOnUse" color-interpolation-filters="sRGB">
<feFlood flood-opacity="0" result="BackgroundImageFix"/>
<feColorMatrix in="SourceAlpha" type="matrix" values="0 0 0 0 0 0 0 0 0 0 0 0 0 0 0 0 0 0 127 0" result="hardAlpha"/>
<feOffset/>
<feGaussianBlur stdDeviation="1"/>
<feColorMatrix type="matrix" values="0 0 0 0 1 0 0 0 0 0.620833 0 0 0 0 0.893833 0 0 0 1 0"/>
<feBlend mode="normal" in2="BackgroundImageFix" result="effect1_dropShadow_1_6705"/>
<feBlend mode="normal" in="SourceGraphic" in2="effect1_dropShadow_1_6705" result="shape"/>
</filter>
<linearGradient id="paint0_linear_1_6705" x1="338.5" y1="1067.35" x2="626.099" y2="498.294" gradientUnits="userSpaceOnUse">
<stop stop-color="#8724C9"/>
<stop offset="1" stop-color="#160055"/>
</linearGradient>
<linearGradient id="paint1_linear_1_6705" x1="297.59" y1="112.837" x2="215.568" y2="115.446" gradientUnits="userSpaceOnUse">
<stop stop-color="#00168A"/>
<stop offset="1" stop-color="#FA2FFE"/>
</linearGradient>
<linearGradient id="paint2_linear_1_6705" x1="318.509" y1="90.7696" x2="301.773" y2="147.159" gradientUnits="userSpaceOnUse">
<stop stop-color="#C7F466"/>
<stop offset="1" stop-color="#00FFD1"/>
</linearGradient>
<linearGradient id="paint3_linear_1_6705" x1="357.295" y1="72" x2="357.295" y2="151.935" gradientUnits="userSpaceOnUse">
<stop stop-color="#E363E6"/>
<stop offset="1" stop-color="#8724C9"/>
</linearGradient>
</defs>
</svg>
