<svg width="276" height="203" viewBox="0 0 276 203" fill="none" xmlns="http://www.w3.org/2000/svg">
<g filter="url(#filter0_d_4_4910)">
<path d="M22.3706 79.487C19.7646 75.3055 22.1177 69.8068 26.9418 68.8048L101.273 53.3673C103.591 52.8858 105.997 53.5945 107.684 55.256L167.478 114.145C170.742 117.359 170.142 122.78 166.254 125.203L89.1554 173.253C85.8353 175.323 81.4664 174.309 79.3972 170.988L22.3706 79.487Z" fill="url(#paint0_linear_4_4910)"/>
</g>
<path d="M117.448 41.1271C118.404 37.5766 121.918 35.3478 125.537 35.996L191.288 47.7709C194.505 48.3469 196.91 51.0483 197.11 54.3098L201.334 123.167C201.567 126.953 198.775 130.25 195.002 130.646L100.656 140.533C95.7112 141.051 91.7851 136.447 93.0776 131.647L117.448 41.1271Z" fill="url(#paint1_linear_4_4910)"/>
<path d="M125.024 77.9181H127.61C128.365 77.9181 128.873 77.7765 129.133 77.4931C129.393 77.2098 129.522 76.8084 129.522 76.2889V59.9613H137.279V77.5994C137.279 79.7953 136.771 81.3418 135.756 82.2391C134.764 83.1363 133.17 83.585 130.975 83.585H125.024V77.9181ZM146.697 59.9613H152.364L161.324 83.585H153.887L153.107 81.4599H145.953L145.174 83.585H137.736L146.697 59.9613ZM151.124 76.2535L149.53 72.1096L147.936 76.2535H151.124ZM168.124 66.1594H161.607L164.015 59.9613H179.139L170.922 77.3869H178.678L176.305 83.585H159.907L168.124 66.1594ZM186.455 66.1594H179.938L182.347 59.9613H197.47L189.253 77.3869H197.01L194.637 83.585H178.238L186.455 66.1594Z" fill="black"/>
<g filter="url(#filter1_d_4_4910)">
<path d="M125.024 77.9181V76.1472H123.254V77.9181H125.024ZM129.133 77.4931L130.438 78.6897L130.438 78.6897L129.133 77.4931ZM129.522 59.9613V58.1904H127.752V59.9613H129.522ZM137.279 59.9613H139.05V58.1904H137.279V59.9613ZM135.756 82.2391L134.583 80.9121L134.576 80.919L134.568 80.9259L135.756 82.2391ZM125.024 83.585H123.254V85.3559H125.024V83.585ZM125.024 79.689H127.61V76.1472H125.024V79.689ZM127.61 79.689C128.437 79.689 129.636 79.565 130.438 78.6897L127.827 76.2965C127.989 76.1198 128.131 76.0924 128.081 76.1062C128.062 76.1115 128.015 76.1225 127.933 76.1317C127.851 76.1408 127.745 76.1472 127.61 76.1472V79.689ZM130.438 78.6897C131.089 77.9795 131.293 77.0934 131.293 76.2889H127.752C127.752 76.4047 127.737 76.4451 127.74 76.4344C127.742 76.428 127.749 76.4092 127.764 76.3827C127.779 76.3558 127.8 76.3259 127.827 76.2965L130.438 78.6897ZM131.293 76.2889V59.9613H127.752V76.2889H131.293ZM129.522 61.7322H137.279V58.1904H129.522V61.7322ZM135.508 59.9613V77.5994H139.05V59.9613H135.508ZM135.508 77.5994C135.508 79.5951 135.037 80.5116 134.583 80.9121L136.929 83.5661C138.506 82.1721 139.05 79.9955 139.05 77.5994H135.508ZM134.568 80.9259C134.055 81.3895 132.996 81.8141 130.975 81.8141V85.3559C133.345 85.3559 135.473 84.8831 136.944 83.5523L134.568 80.9259ZM130.975 81.8141H125.024V85.3559H130.975V81.8141ZM126.795 83.585V77.9181H123.254V83.585H126.795ZM146.697 59.9613V58.1904H145.474L145.041 59.3333L146.697 59.9613ZM152.364 59.9613L154.019 59.3333L153.586 58.1904H152.364V59.9613ZM161.324 83.585V85.3559H163.89L162.98 82.9569L161.324 83.585ZM153.887 83.585L152.224 84.1946L152.65 85.3559H153.887V83.585ZM153.107 81.4599L154.77 80.8503L154.344 79.689H153.107V81.4599ZM145.953 81.4599V79.689H144.716L144.29 80.8503L145.953 81.4599ZM145.174 83.585V85.3559H146.411L146.836 84.1946L145.174 83.585ZM137.736 83.585L136.08 82.9569L135.17 85.3559H137.736V83.585ZM151.124 76.2535V78.0244H153.702L152.777 75.6178L151.124 76.2535ZM149.53 72.1096L151.183 71.4739L149.53 67.1765L147.877 71.4739L149.53 72.1096ZM147.936 76.2535L146.284 75.6178L145.358 78.0244H147.936V76.2535ZM146.697 61.7322H152.364V58.1904H146.697V61.7322ZM150.708 60.5894L159.669 84.213L162.98 82.9569L154.019 59.3333L150.708 60.5894ZM161.324 81.8141H153.887V85.3559H161.324V81.8141ZM155.549 82.9753L154.77 80.8503L151.445 82.0695L152.224 84.1946L155.549 82.9753ZM153.107 79.689H145.953V83.2308H153.107V79.689ZM144.29 80.8503L143.511 82.9753L146.836 84.1946L147.616 82.0695L144.29 80.8503ZM145.174 81.8141H137.736V85.3559H145.174V81.8141ZM139.392 84.213L148.353 60.5894L145.041 59.3333L136.08 82.9569L139.392 84.213ZM152.777 75.6178L151.183 71.4739L147.877 72.7453L149.471 76.8892L152.777 75.6178ZM147.877 71.4739L146.284 75.6178L149.589 76.8892L151.183 72.7453L147.877 71.4739ZM147.936 78.0244H151.124V74.4826H147.936V78.0244ZM168.124 66.1594L169.725 66.9147L170.917 64.3885H168.124V66.1594ZM161.607 66.1594L159.956 65.518L159.019 67.9303H161.607V66.1594ZM164.015 59.9613V58.1904H162.803L162.365 59.3199L164.015 59.9613ZM179.139 59.9613L180.74 60.7166L181.932 58.1904H179.139V59.9613ZM170.922 77.3869L169.32 76.6316L168.129 79.1577H170.922V77.3869ZM178.678 77.3869L180.332 78.02L181.252 75.616H178.678V77.3869ZM176.305 83.585V85.3559H177.523L177.959 84.2181L176.305 83.585ZM159.907 83.585L158.305 82.8297L157.114 85.3559H159.907V83.585ZM168.124 64.3885H161.607V67.9303H168.124V64.3885ZM163.257 66.8008L165.666 60.6027L162.365 59.3199L159.956 65.518L163.257 66.8008ZM164.015 61.7322H179.139V58.1904H164.015V61.7322ZM177.537 59.206L169.32 76.6316L172.523 78.1421L180.74 60.7166L177.537 59.206ZM170.922 79.1577H178.678V75.616H170.922V79.1577ZM177.024 76.7537L174.651 82.9518L177.959 84.2181L180.332 78.02L177.024 76.7537ZM176.305 81.8141H159.907V85.3559H176.305V81.8141ZM161.508 84.3403L169.725 66.9147L166.522 65.4041L158.305 82.8297L161.508 84.3403ZM186.455 66.1594L188.057 66.9147L189.248 64.3885H186.455V66.1594ZM179.938 66.1594L178.288 65.518L177.35 67.9303H179.938V66.1594ZM182.347 59.9613V58.1904H181.135L180.696 59.3199L182.347 59.9613ZM197.47 59.9613L199.072 60.7166L200.263 58.1904H197.47V59.9613ZM189.253 77.3869L187.651 76.6316L186.46 79.1577H189.253V77.3869ZM197.01 77.3869L198.663 78.02L199.584 75.616H197.01V77.3869ZM194.637 83.585V85.3559H195.855L196.29 84.2181L194.637 83.585ZM178.238 83.585L176.636 82.8297L175.445 85.3559H178.238V83.585ZM186.455 64.3885H179.938V67.9303H186.455V64.3885ZM181.589 66.8008L183.997 60.6027L180.696 59.3199L178.288 65.518L181.589 66.8008ZM182.347 61.7322H197.47V58.1904H182.347V61.7322ZM195.868 59.206L187.651 76.6316L190.855 78.1421L199.072 60.7166L195.868 59.206ZM189.253 79.1577H197.01V75.616H189.253V79.1577ZM195.356 76.7537L192.983 82.9518L196.29 84.2181L198.663 78.02L195.356 76.7537ZM194.637 81.8141H178.238V85.3559H194.637V81.8141ZM179.84 84.3403L188.057 66.9147L184.853 65.4041L176.636 82.8297L179.84 84.3403Z" fill="#FF4FCE"/>
</g>
<path d="M58.9644 108.094C58.9644 109.206 59.1752 110.26 59.5968 111.256C60.0183 112.214 60.5932 113.057 61.3213 113.785C62.0495 114.514 62.8926 115.088 63.8507 115.51C64.8471 115.932 65.901 116.142 67.0124 116.142C68.1237 116.142 69.1585 115.932 70.1166 115.51C71.113 115.088 71.9752 114.514 72.7034 113.785C73.4315 113.057 74.0064 112.214 74.4279 111.256C74.8495 110.26 75.0603 109.206 75.0603 108.094C75.0603 106.983 74.8495 105.948 74.4279 104.99C74.0064 103.994 73.4315 103.132 72.7034 102.403C71.9752 101.675 71.113 101.1 70.1166 100.679C69.1585 100.257 68.1237 100.046 67.0124 100.046C65.901 100.046 64.8471 100.257 63.8507 100.679C62.8926 101.1 62.0495 101.675 61.3213 102.403C60.5932 103.132 60.0183 103.994 59.5968 104.99C59.1752 105.948 58.9644 106.983 58.9644 108.094ZM67.0124 121.316C65.1728 121.316 63.4483 120.971 61.8387 120.281C60.2674 119.591 58.8686 118.652 57.6423 117.464C56.4543 116.238 55.5153 114.839 54.8255 113.268C54.1357 111.658 53.7908 109.934 53.7908 108.094C53.7908 106.255 54.1357 104.549 54.8255 102.978C55.5153 101.369 56.4543 99.9698 57.6423 98.7818C58.8686 97.5555 60.2674 96.5974 61.8387 95.9076C63.4483 95.2177 65.1728 94.8728 67.0124 94.8728C68.8519 94.8728 70.5573 95.2177 72.1285 95.9076C73.7381 96.5974 75.1369 97.5555 76.3249 98.7818C77.5513 99.9698 78.5094 101.369 79.1992 102.978C79.889 104.549 80.2339 106.255 80.2339 108.094C80.2339 109.934 79.889 111.658 79.1992 113.268C78.5094 114.839 77.5513 116.238 76.3249 117.464C75.1369 118.652 73.7381 119.591 72.1285 120.281C70.5573 120.971 68.8519 121.316 67.0124 121.316ZM46.8926 108.094C46.8926 105.335 47.4099 102.729 48.4447 100.276C49.5177 97.8237 50.9549 95.6968 52.7561 93.8956C54.5956 92.0561 56.7417 90.6189 59.1944 89.5842C61.6471 88.5111 64.2531 87.9746 67.0124 87.9746C69.7716 87.9746 72.3776 88.5111 74.8303 89.5842C77.283 90.6189 79.41 92.0561 81.2112 93.8956C83.0507 95.6968 84.4878 97.8237 85.5226 100.276C86.5956 102.729 87.1321 105.335 87.1321 108.094C87.1321 109.742 86.9405 111.333 86.5573 112.866C86.1741 114.399 85.6375 115.836 84.9477 117.177H88.5118L83.3381 127.237H73.1633C71.1321 127.888 69.0818 128.214 67.0124 128.214C64.2531 128.214 61.6471 127.697 59.1944 126.662C56.7417 125.589 54.5956 124.152 52.7561 122.351C50.9549 120.511 49.5177 118.365 48.4447 115.912C47.4099 113.46 46.8926 110.854 46.8926 108.094ZM73.2208 121.431C74.4854 120.856 75.6351 120.109 76.6699 119.189C77.7046 118.269 78.586 117.235 79.3142 116.085C80.0806 114.935 80.6747 113.69 81.0962 112.348C81.5178 110.969 81.7285 109.551 81.7285 108.094C81.7285 106.063 81.3453 104.166 80.5788 102.403C79.8124 100.602 78.7585 99.0309 77.4172 97.6896C76.0758 96.3483 74.5046 95.2944 72.7034 94.5279C70.9405 93.7614 69.0435 93.3782 67.0124 93.3782C64.9812 93.3782 63.0651 93.7614 61.2639 94.5279C59.501 95.2944 57.9489 96.3483 56.6076 97.6896C55.2662 99.0309 54.2123 100.602 53.4459 102.403C52.6794 104.166 52.2962 106.063 52.2962 108.094C52.2962 110.126 52.6794 112.042 53.4459 113.843C54.2123 115.606 55.2662 117.158 56.6076 118.499C57.9489 119.841 59.5201 120.894 61.3213 121.661C63.1609 122.427 65.1345 122.811 67.2423 122.811H81.901L82.5908 121.431H73.2208Z" fill="black"/>
<path d="M106.001 128.214C103.586 128.214 101.402 127.908 99.4474 127.294C97.4929 126.681 95.8259 125.761 94.4462 124.535C93.0666 123.309 91.9935 121.757 91.2271 119.879C90.4989 118.001 90.1348 115.797 90.1348 113.268V88.8944H102.379V112.751C102.379 114.092 102.647 115.127 103.184 115.855C103.759 116.545 104.698 116.89 106.001 116.89C107.304 116.89 108.223 116.545 108.76 115.855C109.335 115.127 109.622 114.092 109.622 112.751V88.8944H121.924V113.268C121.924 115.797 121.541 118.001 120.774 119.879C120.046 121.757 118.973 123.309 117.555 124.535C116.176 125.761 114.509 126.681 112.554 127.294C110.6 127.908 108.415 128.214 106.001 128.214ZM106.001 121.316C100.252 121.316 97.378 118.499 97.378 112.866V93.4932H95.8834V112.866C95.8834 116.085 96.7456 118.557 98.4702 120.281C100.233 121.967 102.743 122.811 106.001 122.811C109.258 122.811 111.768 121.967 113.531 120.281C115.294 118.557 116.176 116.085 116.176 112.866V93.4932H114.623V112.866C114.623 118.499 111.749 121.316 106.001 121.316Z" fill="black"/>
<path d="M125.786 88.8944H138.778V127.237H125.786V88.8944ZM133.03 122.638V93.4932H131.535V122.638H133.03Z" fill="black"/>
<path d="M152.971 98.9543H142.394L146.303 88.8944H170.849L157.512 117.177H170.102L166.25 127.237H139.634L152.971 98.9543ZM163.261 122.638L163.836 121.258H149.867L162.973 93.4932H149.292L148.775 94.8728H160.617L147.51 122.638H163.261Z" fill="black"/>
<path d="M181.601 98.9543H171.024L174.933 88.8944H199.479L186.143 117.177H198.732L194.88 127.237H168.265L181.601 98.9543ZM191.891 122.638L192.466 121.258H178.497L191.604 93.4932H177.922L177.405 94.8728H189.247L176.14 122.638H191.891Z" fill="black"/>
<g filter="url(#filter2_d_4_4910)">
<mask id="path-6-outside-1_4_4910" maskUnits="userSpaceOnUse" x="45.7949" y="87.2561" width="157" height="44" fill="black">
<rect fill="white" x="45.7949" y="87.2561" width="157" height="44"/>
<path d="M59.8144 109.273C59.8144 110.379 60.0243 111.427 60.444 112.419C60.8638 113.372 61.4361 114.211 62.1611 114.935C62.8861 115.66 63.7256 116.232 64.6795 116.651C65.6716 117.07 66.7209 117.28 67.8275 117.28C68.934 117.28 69.9643 117.07 70.9182 116.651C71.9103 116.232 72.7688 115.66 73.4938 114.935C74.2188 114.211 74.7912 113.372 75.2109 112.419C75.6306 111.427 75.8405 110.379 75.8405 109.273C75.8405 108.168 75.6306 107.138 75.2109 106.185C74.7912 105.194 74.2188 104.336 73.4938 103.611C72.7688 102.887 71.9103 102.315 70.9182 101.895C69.9643 101.476 68.934 101.266 67.8275 101.266C66.7209 101.266 65.6716 101.476 64.6795 101.895C63.7256 102.315 62.8861 102.887 62.1611 103.611C61.4361 104.336 60.8638 105.194 60.444 106.185C60.0243 107.138 59.8144 108.168 59.8144 109.273ZM67.8275 122.427C65.9959 122.427 64.2788 122.084 62.6762 121.398C61.1118 120.712 59.7191 119.777 58.498 118.596C57.3151 117.375 56.3803 115.984 55.6935 114.421C55.0066 112.819 54.6632 111.103 54.6632 109.273C54.6632 107.443 55.0066 105.746 55.6935 104.183C56.3803 102.582 57.3151 101.19 58.498 100.008C59.7191 98.7881 61.1118 97.8349 62.6762 97.1486C64.2788 96.4623 65.9959 96.1191 67.8275 96.1191C69.659 96.1191 71.357 96.4623 72.9214 97.1486C74.5241 97.8349 75.9168 98.7881 77.0997 100.008C78.3207 101.19 79.2746 102.582 79.9615 104.183C80.6483 105.746 80.9917 107.443 80.9917 109.273C80.9917 111.103 80.6483 112.819 79.9615 114.421C79.2746 115.984 78.3207 117.375 77.0997 118.596C75.9168 119.777 74.5241 120.712 72.9214 121.398C71.357 122.084 69.659 122.427 67.8275 122.427ZM47.7949 109.273C47.7949 106.528 48.31 103.935 49.3403 101.495C50.4087 99.055 51.8396 96.9389 53.633 95.1469C55.4645 93.3167 57.6013 91.8869 60.0434 90.8575C62.4854 89.7899 65.0801 89.2561 67.8275 89.2561C70.5748 89.2561 73.1695 89.7899 75.6115 90.8575C78.0536 91.8869 80.1713 93.3167 81.9647 95.1469C83.7963 96.9389 85.2271 99.055 86.2574 101.495C87.3258 103.935 87.86 106.528 87.86 109.273C87.86 110.913 87.6692 112.495 87.2876 114.02C86.9061 115.545 86.3719 116.975 85.685 118.31H89.2337L84.0824 128.318H73.9517C71.9294 128.966 69.888 129.29 67.8275 129.29C65.0801 129.29 62.4854 128.776 60.0434 127.746C57.6013 126.679 55.4645 125.249 53.633 123.457C51.8396 121.627 50.4087 119.492 49.3403 117.051C48.31 114.611 47.7949 112.018 47.7949 109.273ZM74.0089 122.542C75.2681 121.97 76.4128 121.226 77.4431 120.311C78.4733 119.396 79.3509 118.367 80.0759 117.223C80.8391 116.079 81.4305 114.84 81.8502 113.505C82.27 112.133 82.4798 110.722 82.4798 109.273C82.4798 107.252 82.0983 105.365 81.3351 103.611C80.572 101.819 79.5226 100.256 78.1871 98.9215C76.8516 97.587 75.2872 96.5385 73.4938 95.776C71.7386 95.0134 69.8498 94.6321 67.8275 94.6321C65.8051 94.6321 63.8973 95.0134 62.1039 95.776C60.3486 96.5385 58.8033 97.587 57.4678 98.9215C56.1323 100.256 55.083 101.819 54.3198 103.611C53.5567 105.365 53.1751 107.252 53.1751 109.273C53.1751 111.294 53.5567 113.2 54.3198 114.992C55.083 116.746 56.1323 118.29 57.4678 119.625C58.8033 120.959 60.3677 122.008 62.1611 122.771C63.9927 123.533 65.9578 123.914 68.0564 123.914H82.6515L83.3384 122.542H74.0089Z"/>
<path d="M106.647 129.29C104.243 129.29 102.068 128.985 100.122 128.375C98.1759 127.765 96.516 126.85 95.1424 125.63C93.7687 124.41 92.7003 122.866 91.9372 120.998C91.2122 119.129 90.8497 116.937 90.8497 114.421V90.1712H103.041V113.906C103.041 115.24 103.308 116.27 103.842 116.994C104.415 117.68 105.349 118.024 106.647 118.024C107.944 118.024 108.86 117.68 109.394 116.994C109.966 116.27 110.253 115.24 110.253 113.906V90.1712H122.501V114.421C122.501 116.937 122.12 119.129 121.356 120.998C120.631 122.866 119.563 124.41 118.151 125.63C116.778 126.85 115.118 127.765 113.172 128.375C111.226 128.985 109.051 129.29 106.647 129.29ZM106.647 122.427C100.923 122.427 98.0614 119.625 98.0614 114.02V94.7465H96.5733V114.02C96.5733 117.223 97.4318 119.682 99.1489 121.398C100.904 123.076 103.403 123.914 106.647 123.914C109.89 123.914 112.389 123.076 114.145 121.398C115.9 119.682 116.778 117.223 116.778 114.02V94.7465H115.232V114.02C115.232 119.625 112.37 122.427 106.647 122.427Z"/>
<path d="M126.347 90.1712H139.282V128.318H126.347V90.1712ZM133.558 123.743V94.7465H132.07V123.743H133.558Z"/>
<path d="M153.413 100.18H142.882L146.774 90.1712H171.214L157.935 118.31H170.47L166.635 128.318H140.135L153.413 100.18ZM163.659 123.743L164.231 122.37H150.323L163.372 94.7465H149.75L149.235 96.1191H161.026L147.976 123.743H163.659Z"/>
<path d="M181.919 100.18H171.388L175.28 90.1712H199.72L186.441 118.31H198.976L195.141 128.318H168.641L181.919 100.18ZM192.165 123.743L192.737 122.37H178.829L191.879 94.7465H178.256L177.741 96.1191H189.532L176.482 123.743H192.165Z"/>
</mask>
<path d="M59.8144 109.273C59.8144 110.379 60.0243 111.427 60.444 112.419C60.8638 113.372 61.4361 114.211 62.1611 114.935C62.8861 115.66 63.7256 116.232 64.6795 116.651C65.6716 117.07 66.7209 117.28 67.8275 117.28C68.934 117.28 69.9643 117.07 70.9182 116.651C71.9103 116.232 72.7688 115.66 73.4938 114.935C74.2188 114.211 74.7912 113.372 75.2109 112.419C75.6306 111.427 75.8405 110.379 75.8405 109.273C75.8405 108.168 75.6306 107.138 75.2109 106.185C74.7912 105.194 74.2188 104.336 73.4938 103.611C72.7688 102.887 71.9103 102.315 70.9182 101.895C69.9643 101.476 68.934 101.266 67.8275 101.266C66.7209 101.266 65.6716 101.476 64.6795 101.895C63.7256 102.315 62.8861 102.887 62.1611 103.611C61.4361 104.336 60.8638 105.194 60.444 106.185C60.0243 107.138 59.8144 108.168 59.8144 109.273ZM67.8275 122.427C65.9959 122.427 64.2788 122.084 62.6762 121.398C61.1118 120.712 59.7191 119.777 58.498 118.596C57.3151 117.375 56.3803 115.984 55.6935 114.421C55.0066 112.819 54.6632 111.103 54.6632 109.273C54.6632 107.443 55.0066 105.746 55.6935 104.183C56.3803 102.582 57.3151 101.19 58.498 100.008C59.7191 98.7881 61.1118 97.8349 62.6762 97.1486C64.2788 96.4623 65.9959 96.1191 67.8275 96.1191C69.659 96.1191 71.357 96.4623 72.9214 97.1486C74.5241 97.8349 75.9168 98.7881 77.0997 100.008C78.3207 101.19 79.2746 102.582 79.9615 104.183C80.6483 105.746 80.9917 107.443 80.9917 109.273C80.9917 111.103 80.6483 112.819 79.9615 114.421C79.2746 115.984 78.3207 117.375 77.0997 118.596C75.9168 119.777 74.5241 120.712 72.9214 121.398C71.357 122.084 69.659 122.427 67.8275 122.427ZM47.7949 109.273C47.7949 106.528 48.31 103.935 49.3403 101.495C50.4087 99.055 51.8396 96.9389 53.633 95.1469C55.4645 93.3167 57.6013 91.8869 60.0434 90.8575C62.4854 89.7899 65.0801 89.2561 67.8275 89.2561C70.5748 89.2561 73.1695 89.7899 75.6115 90.8575C78.0536 91.8869 80.1713 93.3167 81.9647 95.1469C83.7963 96.9389 85.2271 99.055 86.2574 101.495C87.3258 103.935 87.86 106.528 87.86 109.273C87.86 110.913 87.6692 112.495 87.2876 114.02C86.9061 115.545 86.3719 116.975 85.685 118.31H89.2337L84.0824 128.318H73.9517C71.9294 128.966 69.888 129.29 67.8275 129.29C65.0801 129.29 62.4854 128.776 60.0434 127.746C57.6013 126.679 55.4645 125.249 53.633 123.457C51.8396 121.627 50.4087 119.492 49.3403 117.051C48.31 114.611 47.7949 112.018 47.7949 109.273ZM74.0089 122.542C75.2681 121.97 76.4128 121.226 77.4431 120.311C78.4733 119.396 79.3509 118.367 80.0759 117.223C80.8391 116.079 81.4305 114.84 81.8502 113.505C82.27 112.133 82.4798 110.722 82.4798 109.273C82.4798 107.252 82.0983 105.365 81.3351 103.611C80.572 101.819 79.5226 100.256 78.1871 98.9215C76.8516 97.587 75.2872 96.5385 73.4938 95.776C71.7386 95.0134 69.8498 94.6321 67.8275 94.6321C65.8051 94.6321 63.8973 95.0134 62.1039 95.776C60.3486 96.5385 58.8033 97.587 57.4678 98.9215C56.1323 100.256 55.083 101.819 54.3198 103.611C53.5567 105.365 53.1751 107.252 53.1751 109.273C53.1751 111.294 53.5567 113.2 54.3198 114.992C55.083 116.746 56.1323 118.29 57.4678 119.625C58.8033 120.959 60.3677 122.008 62.1611 122.771C63.9927 123.533 65.9578 123.914 68.0564 123.914H82.6515L83.3384 122.542H74.0089Z" stroke="#FF4FCE" stroke-width="3.54177" mask="url(#path-6-outside-1_4_4910)"/>
<path d="M106.647 129.29C104.243 129.29 102.068 128.985 100.122 128.375C98.1759 127.765 96.516 126.85 95.1424 125.63C93.7687 124.41 92.7003 122.866 91.9372 120.998C91.2122 119.129 90.8497 116.937 90.8497 114.421V90.1712H103.041V113.906C103.041 115.24 103.308 116.27 103.842 116.994C104.415 117.68 105.349 118.024 106.647 118.024C107.944 118.024 108.86 117.68 109.394 116.994C109.966 116.27 110.253 115.24 110.253 113.906V90.1712H122.501V114.421C122.501 116.937 122.12 119.129 121.356 120.998C120.631 122.866 119.563 124.41 118.151 125.63C116.778 126.85 115.118 127.765 113.172 128.375C111.226 128.985 109.051 129.29 106.647 129.29ZM106.647 122.427C100.923 122.427 98.0614 119.625 98.0614 114.02V94.7465H96.5733V114.02C96.5733 117.223 97.4318 119.682 99.1489 121.398C100.904 123.076 103.403 123.914 106.647 123.914C109.89 123.914 112.389 123.076 114.145 121.398C115.9 119.682 116.778 117.223 116.778 114.02V94.7465H115.232V114.02C115.232 119.625 112.37 122.427 106.647 122.427Z" stroke="#FF4FCE" stroke-width="3.54177" mask="url(#path-6-outside-1_4_4910)"/>
<path d="M126.347 90.1712H139.282V128.318H126.347V90.1712ZM133.558 123.743V94.7465H132.07V123.743H133.558Z" stroke="#FF4FCE" stroke-width="3.54177" mask="url(#path-6-outside-1_4_4910)"/>
<path d="M153.413 100.18H142.882L146.774 90.1712H171.214L157.935 118.31H170.47L166.635 128.318H140.135L153.413 100.18ZM163.659 123.743L164.231 122.37H150.323L163.372 94.7465H149.75L149.235 96.1191H161.026L147.976 123.743H163.659Z" stroke="#FF4FCE" stroke-width="3.54177" mask="url(#path-6-outside-1_4_4910)"/>
<path d="M181.919 100.18H171.388L175.28 90.1712H199.72L186.441 118.31H198.976L195.141 128.318H168.641L181.919 100.18ZM192.165 123.743L192.737 122.37H178.829L191.879 94.7465H178.256L177.741 96.1191H189.532L176.482 123.743H192.165Z" stroke="#FF4FCE" stroke-width="3.54177" mask="url(#path-6-outside-1_4_4910)"/>
</g>
<path d="M181.737 0.0034161C176.06 0.780869 170.081 5.59379 166.675 8.65728L171.493 14.3776C176.774 10.6201 181.513 8.55539 182.91 12.5313C196.481 51.1834 214.652 148.434 249.047 141.171C276.884 133.244 262.313 101.776 266.372 82.9901C267.146 79.7957 269.14 75.818 272.929 75.9375C276.472 76.0493 274.927 74.0942 273.793 73.5656C262.757 67.5739 248.995 65.6645 237.388 61.7958C233.734 60.5777 234.862 63.0808 235.729 64.9698C237.388 86.2182 237.397 86.2182 243.431 118.427C240.242 119.416 229.414 95.7715 217.799 68.5986C215.78 69.8102 213.906 70.4505 211.837 70.2079C217.11 84.4425 222.867 98.5382 229.867 112.502L224.899 114.992C210.731 86.7323 201.658 58.1799 191.639 29.4061L196.887 27.5783C197.614 29.6667 198.329 31.7453 199.047 33.8275C200.005 32.9671 201.148 32.339 202.388 31.992C197.885 21.2423 193.741 11.4191 190.477 4.10125C188.845 1.73709 185.035 -0.0898288 181.737 0.0034161ZM162.69 12.5541C158.911 16.5112 155.485 20.8597 153.06 24.7519L155.367 27.4708C157.838 25.8026 162.375 21.5964 167.084 17.7703L162.69 12.5541ZM204.6 37.2455C203.026 37.2455 201.809 38.4626 201.809 40.0373C201.809 41.6119 203.026 42.8284 204.6 42.8284C206.175 42.8284 207.392 41.6119 207.392 40.0373C207.392 38.4626 206.175 37.2455 204.6 37.2455ZM208.524 47.7809C206.949 47.7809 205.732 48.9977 205.732 50.5721C205.732 52.1468 206.949 53.3639 208.523 53.3639C210.098 53.3639 211.314 52.1468 211.314 50.5724C211.314 48.9977 210.098 47.7809 208.524 47.7809ZM212.817 59.1284C211.242 59.1284 210.025 60.3449 210.025 61.9193C210.025 63.4939 211.242 64.7104 212.816 64.7104C214.391 64.7104 215.608 63.4939 215.608 61.9193C215.608 60.3446 214.391 59.1284 212.817 59.1284ZM246.001 100.672C243.41 100.672 241.369 102.713 241.369 105.304C241.369 107.895 243.41 109.935 246.001 109.935C248.591 109.935 250.632 107.895 250.632 105.304C250.632 102.713 248.591 100.672 246.001 100.672Z" fill="url(#paint2_linear_4_4910)"/>
<defs>
<filter id="filter0_d_4_4910" x="0.0423203" y="39.0521" width="190.799" height="163.608" filterUnits="userSpaceOnUse" color-interpolation-filters="sRGB">
<feFlood flood-opacity="0" result="BackgroundImageFix"/>
<feColorMatrix in="SourceAlpha" type="matrix" values="0 0 0 0 0 0 0 0 0 0 0 0 0 0 0 0 0 0 127 0" result="hardAlpha"/>
<feOffset dy="7.08355"/>
<feGaussianBlur stdDeviation="10.6253"/>
<feComposite in2="hardAlpha" operator="out"/>
<feColorMatrix type="matrix" values="0 0 0 0 0 0 0 0 0 0 0 0 0 0 0 0 0 0 0.25 0"/>
<feBlend mode="normal" in2="BackgroundImageFix" result="effect1_dropShadow_4_4910"/>
<feBlend mode="normal" in="SourceGraphic" in2="effect1_dropShadow_4_4910" result="shape"/>
</filter>
<filter id="filter1_d_4_4910" x="119.712" y="54.6488" width="83.0706" height="34.2489" filterUnits="userSpaceOnUse" color-interpolation-filters="sRGB">
<feFlood flood-opacity="0" result="BackgroundImageFix"/>
<feColorMatrix in="SourceAlpha" type="matrix" values="0 0 0 0 0 0 0 0 0 0 0 0 0 0 0 0 0 0 127 0" result="hardAlpha"/>
<feOffset/>
<feGaussianBlur stdDeviation="2.65633"/>
<feColorMatrix type="matrix" values="0 0 0 0 0.8898 0 0 0 0 0.39 0 0 0 0 0.9 0 0 0 1 0"/>
<feBlend mode="normal" in2="BackgroundImageFix" result="effect1_dropShadow_4_4910"/>
<feBlend mode="normal" in="SourceGraphic" in2="effect1_dropShadow_4_4910" result="shape"/>
</filter>
<filter id="filter2_d_4_4910" x="42.4826" y="83.9433" width="163.573" height="50.6597" filterUnits="userSpaceOnUse" color-interpolation-filters="sRGB">
<feFlood flood-opacity="0" result="BackgroundImageFix"/>
<feColorMatrix in="SourceAlpha" type="matrix" values="0 0 0 0 0 0 0 0 0 0 0 0 0 0 0 0 0 0 127 0" result="hardAlpha"/>
<feOffset/>
<feGaussianBlur stdDeviation="1.77089"/>
<feColorMatrix type="matrix" values="0 0 0 0 1 0 0 0 0 0.620833 0 0 0 0 0.893833 0 0 0 1 0"/>
<feBlend mode="normal" in2="BackgroundImageFix" result="effect1_dropShadow_4_4910"/>
<feBlend mode="normal" in="SourceGraphic" in2="effect1_dropShadow_4_4910" result="shape"/>
</filter>
<linearGradient id="paint0_linear_4_4910" x1="108.36" y1="72.3183" x2="-36.8923" y2="76.9376" gradientUnits="userSpaceOnUse">
<stop stop-color="#00168A"/>
<stop offset="1" stop-color="#FA2FFE"/>
</linearGradient>
<linearGradient id="paint1_linear_4_4910" x1="145.405" y1="33.2388" x2="115.766" y2="133.099" gradientUnits="userSpaceOnUse">
<stop stop-color="#C7F466"/>
<stop offset="1" stop-color="#00FFD1"/>
</linearGradient>
<linearGradient id="paint2_linear_4_4910" x1="214.092" y1="0" x2="214.092" y2="141.557" gradientUnits="userSpaceOnUse">
<stop stop-color="#E363E6"/>
<stop offset="1" stop-color="#8724C9"/>
</linearGradient>
</defs>
</svg>
